<svg xmlns="http://www.w3.org/2000/svg" width="800" height="250" viewBox="0 0 800 250">
  <defs>
    <linearGradient id="pbg" x1="0%" y1="0%" x2="100%" y2="100%">
      <stop offset="0%" style="stop-color:#12141d"/>
      <stop offset="100%" style="stop-color:#0e1018"/>
    </linearGradient>
    <linearGradient id="pborder" x1="0%" y1="0%" x2="100%" y2="100%">
      <stop offset="0%" style="stop-color:rgba(255,200,120,0.12)"/>
      <stop offset="100%" style="stop-color:rgba(200,160,100,0.05)"/>
    </linearGradient>
  </defs>

  <rect x="1" y="1" width="798" height="248" rx="16" fill="url(#pbg)"/>
  <rect x="0.5" y="0.5" width="799" height="249" rx="16" fill="none" stroke="url(#pborder)" stroke-width="0.5"/>

  <!-- Paw icon -->
  <g transform="translate(38, 30) scale(0.7)" fill="rgba(255,200,120,0.3)">
    <ellipse cx="0" cy="0" rx="6" ry="8"/>
    <circle cx="-6" cy="-9" r="3.5"/>
    <circle cx="0" cy="-12" r="3.5"/>
    <circle cx="6" cy="-9" r="3.5"/>
  </g>

  <text x="60" y="35" font-family="Georgia, serif" font-size="16" fill="#c8b898" font-weight="600">things i've built</text>
  <line x1="210" y1="30" x2="760" y2="30" stroke="rgba(255,255,255,0.03)" stroke-width="1"/>

  <!-- Project 1 -->
  <rect x="40" y="58" width="350" height="72" rx="12" fill="rgba(255,255,255,0.015)" stroke="rgba(255,255,255,0.05)" stroke-width="0.5"/>
  <text x="60" y="85" font-family="Georgia, serif" font-size="14" fill="#e8e0d4" font-weight="600">anime-recommend-system</text>
  <text x="60" y="108" font-family="'SF Mono', monospace" font-size="10" fill="#5a5548">content-based anime recommendations</text>
  <rect x="60" y="115" width="50" height="5" rx="2.5" fill="rgba(243,118,38,0.3)"/>
  <text x="118" y="120" font-family="'SF Mono', monospace" font-size="9" fill="#8b8578">Jupyter</text>

  <!-- Project 2 -->
  <rect x="410" y="58" width="350" height="72" rx="12" fill="rgba(255,255,255,0.015)" stroke="rgba(255,255,255,0.05)" stroke-width="0.5"/>
  <text x="430" y="85" font-family="Georgia, serif" font-size="14" fill="#e8e0d4" font-weight="600">Focus-monitoring</text>
  <text x="430" y="108" font-family="'SF Mono', monospace" font-size="10" fill="#5a5548">stay focused, good boy!</text>
  <rect x="430" y="115" width="50" height="5" rx="2.5" fill="rgba(55,118,171,0.3)"/>
  <text x="488" y="120" font-family="'SF Mono', monospace" font-size="9" fill="#8b8578">Python</text>

  <!-- Project 3 -->
  <rect x="40" y="148" width="350" height="72" rx="12" fill="rgba(255,255,255,0.015)" stroke="rgba(255,255,255,0.05)" stroke-width="0.5"/>
  <text x="60" y="175" font-family="Georgia, serif" font-size="14" fill="#e8e0d4" font-weight="600">hate-speech-reporter</text>
  <text x="60" y="198" font-family="'SF Mono', monospace" font-size="10" fill="#5a5548">keeping the internet a nicer place</text>
  <rect x="60" y="205" width="50" height="5" rx="2.5" fill="rgba(247,223,30,0.3)"/>
  <text x="118" y="210" font-family="'SF Mono', monospace" font-size="9" fill="#8b8578">JavaScript</text>

  <!-- Project 4 -->
  <rect x="410" y="148" width="350" height="72" rx="12" fill="rgba(255,255,255,0.015)" stroke="rgba(255,255,255,0.05)" stroke-width="0.5"/>
  <text x="430" y="175" font-family="Georgia, serif" font-size="14" fill="#e8e0d4" font-weight="600">business-closure-rate</text>
  <text x="430" y="198" font-family="'SF Mono', monospace" font-size="10" fill="#5a5548">data sniffing for business insights</text>
  <rect x="430" y="205" width="50" height="5" rx="2.5" fill="rgba(55,118,171,0.3)"/>
  <text x="488" y="210" font-family="'SF Mono', monospace" font-size="9" fill="#8b8578">Python</text>
</svg>
