<svg xmlns="http://www.w3.org/2000/svg" width="1200" height="340" viewBox="0 0 1200 340">
  <defs>
    <linearGradient id="sky" x1="0%" y1="0%" x2="0%" y2="100%">
      <stop offset="0%" style="stop-color:#0b0e17"/>
      <stop offset="60%" style="stop-color:#141827"/>
      <stop offset="100%" style="stop-color:#1a1f33"/>
    </linearGradient>

    <radialGradient id="moon" cx="50%" cy="50%" r="50%">
      <stop offset="0%" style="stop-color:#ffeebb"/>
      <stop offset="70%" style="stop-color:#ffdd88"/>
      <stop offset="100%" style="stop-color:#ffcc5500"/>
    </radialGradient>

    <radialGradient id="moonGlow" cx="50%" cy="50%" r="50%">
      <stop offset="0%" style="stop-color:rgba(255,221,136,0.15)"/>
      <stop offset="100%" style="stop-color:transparent"/>
    </radialGradient>

    <filter id="blur">
      <feGaussianBlur stdDeviation="1.5"/>
    </filter>

    <filter id="bigblur">
      <feGaussianBlur stdDeviation="20"/>
    </filter>
  </defs>

  <!-- Night sky -->
  <rect width="1200" height="340" fill="url(#sky)"/>

  <!-- Stars -->
  <circle cx="100" cy="40" r="1" fill="#fff" opacity="0.7">
    <animate attributeName="opacity" values="0.7;0.2;0.7" dur="3s" repeatCount="indefinite"/>
  </circle>
  <circle cx="250" cy="70" r="0.7" fill="#fff" opacity="0.5">
    <animate attributeName="opacity" values="0.5;0.1;0.5" dur="4s" repeatCount="indefinite"/>
  </circle>
  <circle cx="400" cy="30" r="1.2" fill="#fff" opacity="0.6">
    <animate attributeName="opacity" values="0.6;0.15;0.6" dur="2.5s" repeatCount="indefinite"/>
  </circle>
  <circle cx="550" cy="55" r="0.8" fill="#fff" opacity="0.4">
    <animate attributeName="opacity" values="0.4;0.1;0.4" dur="5s" repeatCount="indefinite"/>
  </circle>
  <circle cx="700" cy="25" r="1" fill="#fff" opacity="0.7">
    <animate attributeName="opacity" values="0.7;0.2;0.7" dur="3.5s" repeatCount="indefinite"/>
  </circle>
  <circle cx="850" cy="60" r="0.6" fill="#fff" opacity="0.5">
    <animate attributeName="opacity" values="0.5;0.15;0.5" dur="4.2s" repeatCount="indefinite"/>
  </circle>
  <circle cx="1000" cy="35" r="1.1" fill="#fff" opacity="0.6">
    <animate attributeName="opacity" values="0.6;0.1;0.6" dur="2.8s" repeatCount="indefinite"/>
  </circle>
  <circle cx="1100" cy="80" r="0.7" fill="#fff" opacity="0.3">
    <animate attributeName="opacity" values="0.3;0.1;0.3" dur="6s" repeatCount="indefinite"/>
  </circle>
  <circle cx="170" cy="95" r="0.5" fill="#fff" opacity="0.4"/>
  <circle cx="330" cy="15" r="0.6" fill="#fff" opacity="0.3"/>
  <circle cx="620" cy="80" r="0.9" fill="#fff" opacity="0.5">
    <animate attributeName="opacity" values="0.5;0.2;0.5" dur="3.2s" repeatCount="indefinite"/>
  </circle>
  <circle cx="950" cy="90" r="0.5" fill="#fff" opacity="0.35"/>
  <circle cx="480" cy="90" r="0.6" fill="#fff" opacity="0.4"/>
  <circle cx="780" cy="45" r="0.8" fill="#fff" opacity="0.5">
    <animate attributeName="opacity" values="0.5;0.1;0.5" dur="4.8s" repeatCount="indefinite"/>
  </circle>

  <!-- Moon -->
  <ellipse cx="950" cy="80" rx="80" ry="80" fill="url(#moonGlow)" filter="url(#bigblur)"/>
  <circle cx="950" cy="80" r="32" fill="url(#moon)" opacity="0.9"/>

  <!-- Ground / hill -->
  <ellipse cx="600" cy="420" rx="750" ry="160" fill="#0f1219"/>
  <ellipse cx="600" cy="420" rx="750" ry="160" fill="rgba(26,31,51,0.5)"/>

  <!-- Paw prints trail - walking across -->
  <g opacity="0.15" fill="#fff">
    <!-- paw 1 -->
    <g transform="translate(120, 270) rotate(-10)">
      <ellipse cx="0" cy="0" rx="5" ry="6.5"/>
      <circle cx="-5" cy="-7" r="2.8"/>
      <circle cx="0" cy="-9" r="2.8"/>
      <circle cx="5" cy="-7" r="2.8"/>
    </g>
    <!-- paw 2 -->
    <g transform="translate(190, 258) rotate(5)">
      <ellipse cx="0" cy="0" rx="5" ry="6.5"/>
      <circle cx="-5" cy="-7" r="2.8"/>
      <circle cx="0" cy="-9" r="2.8"/>
      <circle cx="5" cy="-7" r="2.8"/>
    </g>
    <!-- paw 3 -->
    <g transform="translate(260, 268) rotate(-8)">
      <ellipse cx="0" cy="0" rx="5" ry="6.5"/>
      <circle cx="-5" cy="-7" r="2.8"/>
      <circle cx="0" cy="-9" r="2.8"/>
      <circle cx="5" cy="-7" r="2.8"/>
    </g>
    <!-- paw 4 -->
    <g transform="translate(330, 255) rotate(3)">
      <ellipse cx="0" cy="0" rx="5" ry="6.5"/>
      <circle cx="-5" cy="-7" r="2.8"/>
      <circle cx="0" cy="-9" r="2.8"/>
      <circle cx="5" cy="-7" r="2.8"/>
    </g>
    <!-- paw 5 -->
    <g transform="translate(400, 265) rotate(-5)">
      <ellipse cx="0" cy="0" rx="5" ry="6.5"/>
      <circle cx="-5" cy="-7" r="2.8"/>
      <circle cx="0" cy="-9" r="2.8"/>
      <circle cx="5" cy="-7" r="2.8"/>
    </g>
  </g>

  <!-- Main text -->
  <text x="600" y="175" text-anchor="middle" font-family="Georgia, 'Times New Roman', serif" font-size="52" font-weight="700" fill="#e8e0d4" letter-spacing="2" opacity="0">
    jihonshiny
    <animate attributeName="opacity" values="0;1" dur="1.5s" fill="freeze" begin="0.3s"/>
  </text>

  <!-- Subtitle with paw -->
  <text x="600" y="215" text-anchor="middle" font-family="'SF Mono', 'Fira Code', monospace" font-size="14" fill="#8b8578" letter-spacing="4" opacity="0">
    FRONTEND DEVELOPER &#x1f43e;
    <animate attributeName="opacity" values="0;1" dur="1.5s" fill="freeze" begin="0.8s"/>
  </text>

  <!-- Warm divider line -->
  <line x1="480" y1="235" x2="720" y2="235" stroke="rgba(255,200,120,0.15)" stroke-width="1" stroke-linecap="round">
    <animate attributeName="x1" values="520;480;520" dur="4s" repeatCount="indefinite"/>
    <animate attributeName="x2" values="680;720;680" dur="4s" repeatCount="indefinite"/>
  </line>

  <!-- Small quote -->
  <text x="600" y="265" text-anchor="middle" font-family="Georgia, serif" font-size="13" fill="#5a5548" font-style="italic" opacity="0">
    "codes at midnight"
    <animate attributeName="opacity" values="0;0.7" dur="2s" fill="freeze" begin="1.2s"/>
  </text>
</svg>
