<svg xmlns="http://www.w3.org/2000/svg" width="900" height="1200" viewBox="0 0 900 1200">
  <defs>
    <linearGradient id="sky" x1="0%" y1="0%" x2="0%" y2="100%">
      <stop offset="0%" style="stop-color:#0b0e17"/>
      <stop offset="100%" style="stop-color:#12141d"/>
    </linearGradient>

    <linearGradient id="mainBg" x1="0%" y1="0%" x2="0%" y2="100%">
      <stop offset="0%" style="stop-color:#12141d"/>
      <stop offset="100%" style="stop-color:#0e1018"/>
    </linearGradient>

    <radialGradient id="moon" cx="50%" cy="50%" r="50%">
      <stop offset="0%" style="stop-color:#ffeebb"/>
      <stop offset="70%" style="stop-color:#ffdd88"/>
      <stop offset="100%" style="stop-color:#ffcc5500"/>
    </radialGradient>

    <radialGradient id="moonGlow" cx="50%" cy="50%" r="50%">
      <stop offset="0%" style="stop-color:rgba(255,221,136,0.15)"/>
      <stop offset="100%" style="stop-color:transparent"/>
    </radialGradient>

    <filter id="bigblur">
      <feGaussianBlur stdDeviation="20"/>
    </filter>

    <linearGradient id="fline" x1="0%" y1="0%" x2="100%" y2="0%">
      <stop offset="0%" style="stop-color:transparent"/>
      <stop offset="30%" style="stop-color:rgba(255,200,120,0.12)"/>
      <stop offset="70%" style="stop-color:rgba(255,200,120,0.12)"/>
      <stop offset="100%" style="stop-color:transparent"/>
    </linearGradient>
  </defs>

  <!-- ========== FULL BACKGROUND ========== -->
  <rect width="900" height="1200" fill="#12141d"/>

  <!-- ========== HEADER SECTION (0-320) ========== -->
  <rect width="900" height="320" fill="url(#sky)"/>

  <!-- Stars -->
  <circle cx="80" cy="35" r="1" fill="#fff" opacity="0.7">
    <animate attributeName="opacity" values="0.7;0.2;0.7" dur="3s" repeatCount="indefinite"/>
  </circle>
  <circle cx="190" cy="60" r="0.7" fill="#fff" opacity="0.5">
    <animate attributeName="opacity" values="0.5;0.1;0.5" dur="4s" repeatCount="indefinite"/>
  </circle>
  <circle cx="310" cy="25" r="1.2" fill="#fff" opacity="0.6">
    <animate attributeName="opacity" values="0.6;0.15;0.6" dur="2.5s" repeatCount="indefinite"/>
  </circle>
  <circle cx="420" cy="50" r="0.8" fill="#fff" opacity="0.4">
    <animate attributeName="opacity" values="0.4;0.1;0.4" dur="5s" repeatCount="indefinite"/>
  </circle>
  <circle cx="540" cy="22" r="1" fill="#fff" opacity="0.7">
    <animate attributeName="opacity" values="0.7;0.2;0.7" dur="3.5s" repeatCount="indefinite"/>
  </circle>
  <circle cx="650" cy="55" r="0.6" fill="#fff" opacity="0.5">
    <animate attributeName="opacity" values="0.5;0.15;0.5" dur="4.2s" repeatCount="indefinite"/>
  </circle>
  <circle cx="770" cy="30" r="1.1" fill="#fff" opacity="0.6">
    <animate attributeName="opacity" values="0.6;0.1;0.6" dur="2.8s" repeatCount="indefinite"/>
  </circle>
  <circle cx="850" cy="70" r="0.7" fill="#fff" opacity="0.3">
    <animate attributeName="opacity" values="0.3;0.1;0.3" dur="6s" repeatCount="indefinite"/>
  </circle>
  <circle cx="130" cy="80" r="0.5" fill="#fff" opacity="0.4"/>
  <circle cx="260" cy="12" r="0.6" fill="#fff" opacity="0.3"/>
  <circle cx="480" cy="75" r="0.9" fill="#fff" opacity="0.5">
    <animate attributeName="opacity" values="0.5;0.2;0.5" dur="3.2s" repeatCount="indefinite"/>
  </circle>
  <circle cx="600" cy="40" r="0.8" fill="#fff" opacity="0.5">
    <animate attributeName="opacity" values="0.5;0.1;0.5" dur="4.8s" repeatCount="indefinite"/>
  </circle>
  <circle cx="370" cy="68" r="0.5" fill="#fff" opacity="0.35"/>
  <circle cx="720" cy="15" r="0.6" fill="#fff" opacity="0.4"/>

  <!-- Moon -->
  <ellipse cx="740" cy="70" rx="70" ry="70" fill="url(#moonGlow)" filter="url(#bigblur)"/>
  <circle cx="740" cy="70" r="28" fill="url(#moon)" opacity="0.9"/>

  <!-- Ground hill -->
  <ellipse cx="450" cy="390" rx="600" ry="140" fill="#10121b"/>

  <!-- Paw prints trail -->
  <g opacity="0.12" fill="#fff">
    <g transform="translate(90, 250) rotate(-10) scale(0.8)">
      <ellipse cx="0" cy="0" rx="5" ry="6.5"/>
      <circle cx="-5" cy="-7" r="2.8"/>
      <circle cx="0" cy="-9" r="2.8"/>
      <circle cx="5" cy="-7" r="2.8"/>
    </g>
    <g transform="translate(150, 240) rotate(5) scale(0.8)">
      <ellipse cx="0" cy="0" rx="5" ry="6.5"/>
      <circle cx="-5" cy="-7" r="2.8"/>
      <circle cx="0" cy="-9" r="2.8"/>
      <circle cx="5" cy="-7" r="2.8"/>
    </g>
    <g transform="translate(210, 248) rotate(-8) scale(0.8)">
      <ellipse cx="0" cy="0" rx="5" ry="6.5"/>
      <circle cx="-5" cy="-7" r="2.8"/>
      <circle cx="0" cy="-9" r="2.8"/>
      <circle cx="5" cy="-7" r="2.8"/>
    </g>
    <g transform="translate(270, 238) rotate(3) scale(0.8)">
      <ellipse cx="0" cy="0" rx="5" ry="6.5"/>
      <circle cx="-5" cy="-7" r="2.8"/>
      <circle cx="0" cy="-9" r="2.8"/>
      <circle cx="5" cy="-7" r="2.8"/>
    </g>
    <g transform="translate(330, 246) rotate(-5) scale(0.8)">
      <ellipse cx="0" cy="0" rx="5" ry="6.5"/>
      <circle cx="-5" cy="-7" r="2.8"/>
      <circle cx="0" cy="-9" r="2.8"/>
      <circle cx="5" cy="-7" r="2.8"/>
    </g>
  </g>

  <!-- Header text -->
  <text x="450" y="155" text-anchor="middle" font-family="Georgia, 'Times New Roman', serif" font-size="48" font-weight="700" fill="#e8e0d4" letter-spacing="2" opacity="0">
    jihonshiny
    <animate attributeName="opacity" values="0;1" dur="1.5s" fill="freeze" begin="0.3s"/>
  </text>

  <text x="450" y="190" text-anchor="middle" font-family="'Courier New', monospace" font-size="13" fill="#8b8578" letter-spacing="4" opacity="0">
    FRONTEND DEVELOPER
    <animate attributeName="opacity" values="0;1" dur="1.5s" fill="freeze" begin="0.8s"/>
  </text>

  <line x1="370" y1="205" x2="530" y2="205" stroke="rgba(255,200,120,0.15)" stroke-width="1" stroke-linecap="round">
    <animate attributeName="x1" values="400;370;400" dur="4s" repeatCount="indefinite"/>
    <animate attributeName="x2" values="500;530;500" dur="4s" repeatCount="indefinite"/>
  </line>

  <text x="450" y="230" text-anchor="middle" font-family="Georgia, serif" font-size="12" fill="#5a5548" font-style="italic" opacity="0">
    "a curious puppy who codes at midnight"
    <animate attributeName="opacity" values="0;0.7" dur="2s" fill="freeze" begin="1.2s"/>
  </text>

  <!-- ========== ABOUT SECTION (320-580) ========== -->
  <!-- Section divider -->
  <line x1="50" y1="340" x2="850" y2="340" stroke="rgba(255,200,120,0.06)" stroke-width="0.5"/>

  <!-- Paw icon -->
  <g transform="translate(58, 375) scale(0.6)" fill="rgba(255,200,120,0.3)">
    <ellipse cx="0" cy="0" rx="5" ry="6.5"/>
    <circle cx="-5" cy="-7" r="2.8"/>
    <circle cx="0" cy="-9" r="2.8"/>
    <circle cx="5" cy="-7" r="2.8"/>
  </g>
  <text x="78" y="378" font-family="Georgia, serif" font-size="15" fill="#c8b898" font-weight="600">about me</text>
  <line x1="165" y1="373" x2="850" y2="373" stroke="rgba(255,255,255,0.025)" stroke-width="0.5"/>

  <text x="50" y="415" font-family="'Courier New', monospace" font-size="13">
    <tspan fill="#5a5548">~</tspan>
    <tspan fill="#c8b898"> whoami</tspan>
  </text>

  <text x="50" y="445" font-family="'Courier New', monospace" font-size="12.5">
    <tspan fill="#8b8578">name</tspan>
    <tspan fill="#5a5548"> ........... </tspan>
    <tspan fill="#e8e0d4">&#xbe5b;&#xb098;</tspan>
  </text>

  <text x="50" y="470" font-family="'Courier New', monospace" font-size="12.5">
    <tspan fill="#8b8578">type</tspan>
    <tspan fill="#5a5548"> ........... </tspan>
    <tspan fill="#e8e0d4">&#xace0;&#xb4f1;&#xd559;&#xc0dd; &#xd504;&#xb860;&#xd2b8;&#xc5d4;&#xb4dc; &#xac1c;&#xbc1c;&#xc790;</tspan>
  </text>

  <text x="50" y="495" font-family="'Courier New', monospace" font-size="12.5">
    <tspan fill="#8b8578">breed</tspan>
    <tspan fill="#5a5548"> .......... </tspan>
    <tspan fill="#e8e0d4">&#xac80;&#xc815; &#xd3ec;&#xba54;&#xb77c;&#xb2c8;&#xc548; (with glasses)</tspan>
  </text>

  <text x="50" y="520" font-family="'Courier New', monospace" font-size="12.5">
    <tspan fill="#8b8578">skills</tspan>
    <tspan fill="#5a5548"> ......... </tspan>
    <tspan fill="#e8e0d4">sitting cute, writing code, debugging</tspan>
  </text>

  <text x="50" y="545" font-family="'Courier New', monospace" font-size="12.5">
    <tspan fill="#8b8578">loves</tspan>
    <tspan fill="#5a5548"> .......... </tspan>
    <tspan fill="#e8e0d4">treats, belly rubs, clean code</tspan>
  </text>

  <text x="50" y="570" font-family="'Courier New', monospace" font-size="12.5">
    <tspan fill="#8b8578">status</tspan>
    <tspan fill="#5a5548"> ......... </tspan>
    <tspan fill="#c8b898">sniffing around new tech</tspan>
  </text>
  <rect x="350" y="558" width="8" height="14" fill="#ffc878" rx="1">
    <animate attributeName="opacity" values="1;0;1" dur="1.2s" repeatCount="indefinite"/>
  </rect>

  <!-- ========== SKILLS SECTION (600-810) ========== -->
  <line x1="50" y1="605" x2="850" y2="605" stroke="rgba(255,200,120,0.06)" stroke-width="0.5"/>

  <!-- Bone icon -->
  <g transform="translate(48, 637) scale(0.35)" fill="rgba(255,200,120,0.3)">
    <rect x="8" y="0" width="24" height="12" rx="2"/>
    <circle cx="8" cy="0" r="6"/>
    <circle cx="8" cy="12" r="6"/>
    <circle cx="32" cy="0" r="6"/>
    <circle cx="32" cy="12" r="6"/>
  </g>

  <text x="72" y="642" font-family="Georgia, serif" font-size="15" fill="#c8b898" font-weight="600">toys i play with</text>
  <line x1="215" y1="637" x2="850" y2="637" stroke="rgba(255,255,255,0.025)" stroke-width="0.5"/>

  <!-- Skill pills Row 1 -->
  <rect x="50" y="665" width="100" height="34" rx="17" fill="rgba(227,79,38,0.08)" stroke="rgba(227,79,38,0.2)" stroke-width="0.5"/>
  <circle cx="70" cy="682" r="4" fill="#E34F26" opacity="0.7"/>
  <text x="82" y="687" font-family="'Courier New', monospace" font-size="12" fill="#e8e0d4">HTML</text>

  <rect x="165" y="665" width="88" height="34" rx="17" fill="rgba(21,114,182,0.08)" stroke="rgba(21,114,182,0.2)" stroke-width="0.5"/>
  <circle cx="185" cy="682" r="4" fill="#1572B6" opacity="0.7"/>
  <text x="197" y="687" font-family="'Courier New', monospace" font-size="12" fill="#e8e0d4">CSS</text>

  <rect x="268" y="665" width="145" height="34" rx="17" fill="rgba(247,223,30,0.06)" stroke="rgba(247,223,30,0.2)" stroke-width="0.5"/>
  <circle cx="288" cy="682" r="4" fill="#F7DF1E" opacity="0.7"/>
  <text x="300" y="687" font-family="'Courier New', monospace" font-size="12" fill="#e8e0d4">JavaScript</text>

  <rect x="428" y="665" width="108" height="34" rx="17" fill="rgba(97,218,251,0.06)" stroke="rgba(97,218,251,0.2)" stroke-width="0.5"/>
  <circle cx="448" cy="682" r="4" fill="#61DAFB" opacity="0.7"/>
  <text x="460" y="687" font-family="'Courier New', monospace" font-size="12" fill="#e8e0d4">React</text>

  <rect x="551" y="665" width="114" height="34" rx="17" fill="rgba(55,118,171,0.08)" stroke="rgba(55,118,171,0.2)" stroke-width="0.5"/>
  <circle cx="571" cy="682" r="4" fill="#3776AB" opacity="0.7"/>
  <text x="583" y="687" font-family="'Courier New', monospace" font-size="12" fill="#e8e0d4">Python</text>

  <!-- Row 2 -->
  <rect x="50" y="712" width="118" height="34" rx="17" fill="rgba(243,118,38,0.06)" stroke="rgba(243,118,38,0.2)" stroke-width="0.5"/>
  <circle cx="70" cy="729" r="4" fill="#F37626" opacity="0.7"/>
  <text x="82" y="734" font-family="'Courier New', monospace" font-size="12" fill="#e8e0d4">Jupyter</text>

  <rect x="183" y="712" width="88" height="34" rx="17" fill="rgba(240,80,50,0.06)" stroke="rgba(240,80,50,0.2)" stroke-width="0.5"/>
  <circle cx="203" cy="729" r="4" fill="#F05032" opacity="0.7"/>
  <text x="215" y="734" font-family="'Courier New', monospace" font-size="12" fill="#e8e0d4">Git</text>

  <rect x="286" y="712" width="114" height="34" rx="17" fill="rgba(255,255,255,0.03)" stroke="rgba(255,255,255,0.1)" stroke-width="0.5"/>
  <circle cx="306" cy="729" r="4" fill="#fff" opacity="0.5"/>
  <text x="318" y="734" font-family="'Courier New', monospace" font-size="12" fill="#e8e0d4">GitHub</text>

  <rect x="415" y="712" width="120" height="34" rx="17" fill="rgba(0,122,204,0.06)" stroke="rgba(0,122,204,0.2)" stroke-width="0.5"/>
  <circle cx="435" cy="729" r="4" fill="#007ACC" opacity="0.7"/>
  <text x="447" y="734" font-family="'Courier New', monospace" font-size="12" fill="#e8e0d4">VS Code</text>

  <!-- fetching new toys... -->
  <text x="50" y="780" font-family="'Courier New', monospace" font-size="11" fill="#5a5548">
    fetching new toys...
    <animate attributeName="opacity" values="0.4;0.8;0.4" dur="2s" repeatCount="indefinite"/>
  </text>
  <circle cx="180" cy="777" r="2" fill="#ffc878" opacity="0.3">
    <animate attributeName="opacity" values="0.3;0.8;0.3" dur="1.5s" repeatCount="indefinite"/>
  </circle>
  <circle cx="190" cy="777" r="2" fill="#ffc878" opacity="0.3">
    <animate attributeName="opacity" values="0.3;0.8;0.3" dur="1.5s" repeatCount="indefinite" begin="0.3s"/>
  </circle>
  <circle cx="200" cy="777" r="2" fill="#ffc878" opacity="0.3">
    <animate attributeName="opacity" values="0.3;0.8;0.3" dur="1.5s" repeatCount="indefinite" begin="0.6s"/>
  </circle>

  <!-- ========== PROJECTS SECTION (810-1080) ========== -->
  <line x1="50" y1="810" x2="850" y2="810" stroke="rgba(255,200,120,0.06)" stroke-width="0.5"/>

  <g transform="translate(58, 842) scale(0.6)" fill="rgba(255,200,120,0.3)">
    <ellipse cx="0" cy="0" rx="5" ry="6.5"/>
    <circle cx="-5" cy="-7" r="2.8"/>
    <circle cx="0" cy="-9" r="2.8"/>
    <circle cx="5" cy="-7" r="2.8"/>
  </g>
  <text x="78" y="845" font-family="Georgia, serif" font-size="15" fill="#c8b898" font-weight="600">things i've built</text>
  <line x1="220" y1="840" x2="850" y2="840" stroke="rgba(255,255,255,0.025)" stroke-width="0.5"/>

  <!-- Project 1 -->
  <rect x="50" y="865" width="385" height="70" rx="12" fill="rgba(255,255,255,0.015)" stroke="rgba(255,255,255,0.04)" stroke-width="0.5"/>
  <text x="70" y="895" font-family="Georgia, serif" font-size="13.5" fill="#e8e0d4" font-weight="600">anime-recommend-system</text>
  <text x="70" y="916" font-family="'Courier New', monospace" font-size="10" fill="#5a5548">content-based anime recommendations</text>
  <circle cx="400" cy="893" r="4" fill="#F37626" opacity="0.5"/>
  <text x="410" y="897" font-family="'Courier New', monospace" font-size="9" fill="#8b8578">Jupyter</text>

  <!-- Project 2 -->
  <rect x="455" y="865" width="395" height="70" rx="12" fill="rgba(255,255,255,0.015)" stroke="rgba(255,255,255,0.04)" stroke-width="0.5"/>
  <text x="475" y="895" font-family="Georgia, serif" font-size="13.5" fill="#e8e0d4" font-weight="600">Focus-monitoring</text>
  <text x="475" y="916" font-family="'Courier New', monospace" font-size="10" fill="#5a5548">stay focused, good boy!</text>
  <circle cx="805" cy="893" r="4" fill="#3776AB" opacity="0.5"/>
  <text x="815" y="897" font-family="'Courier New', monospace" font-size="9" fill="#8b8578">Python</text>

  <!-- Project 3 -->
  <rect x="50" y="950" width="385" height="70" rx="12" fill="rgba(255,255,255,0.015)" stroke="rgba(255,255,255,0.04)" stroke-width="0.5"/>
  <text x="70" y="980" font-family="Georgia, serif" font-size="13.5" fill="#e8e0d4" font-weight="600">hate-speech-reporter</text>
  <text x="70" y="1001" font-family="'Courier New', monospace" font-size="10" fill="#5a5548">keeping the internet a nicer place</text>
  <circle cx="400" cy="978" r="4" fill="#F7DF1E" opacity="0.5"/>
  <text x="410" y="982" font-family="'Courier New', monospace" font-size="9" fill="#8b8578">JS</text>

  <!-- Project 4 -->
  <rect x="455" y="950" width="395" height="70" rx="12" fill="rgba(255,255,255,0.015)" stroke="rgba(255,255,255,0.04)" stroke-width="0.5"/>
  <text x="475" y="980" font-family="Georgia, serif" font-size="13.5" fill="#e8e0d4" font-weight="600">business-closure-rate</text>
  <text x="475" y="1001" font-family="'Courier New', monospace" font-size="10" fill="#5a5548">data sniffing for business insights</text>
  <circle cx="805" cy="978" r="4" fill="#3776AB" opacity="0.5"/>
  <text x="815" y="982" font-family="'Courier New', monospace" font-size="9" fill="#8b8578">Python</text>

  <!-- ========== FOOTER (1080-1200) ========== -->
  <line x1="50" y1="1060" x2="850" y2="1060" stroke="rgba(255,200,120,0.06)" stroke-width="0.5"/>

  <!-- Contact -->
  <text x="450" y="1100" text-anchor="middle" font-family="'Courier New', monospace" font-size="11" fill="#5a5548">
    mail : your-email@example.com
  </text>

  <!-- Paw prints walking away -->
  <g opacity="0.07" fill="#fff">
    <g transform="translate(340, 1140) rotate(-5) scale(0.55)">
      <ellipse cx="0" cy="0" rx="5" ry="6.5"/>
      <circle cx="-5" cy="-7" r="2.8"/>
      <circle cx="0" cy="-9" r="2.8"/>
      <circle cx="5" cy="-7" r="2.8"/>
    </g>
    <g transform="translate(385, 1132) rotate(8) scale(0.5)">
      <ellipse cx="0" cy="0" rx="5" ry="6.5"/>
      <circle cx="-5" cy="-7" r="2.8"/>
      <circle cx="0" cy="-9" r="2.8"/>
      <circle cx="5" cy="-7" r="2.8"/>
    </g>
    <g transform="translate(430, 1140) rotate(-3) scale(0.45)">
      <ellipse cx="0" cy="0" rx="5" ry="6.5"/>
      <circle cx="-5" cy="-7" r="2.8"/>
      <circle cx="0" cy="-9" r="2.8"/>
      <circle cx="5" cy="-7" r="2.8"/>
    </g>
    <g transform="translate(470, 1133) rotate(6) scale(0.4)">
      <ellipse cx="0" cy="0" rx="5" ry="6.5"/>
      <circle cx="-5" cy="-7" r="2.8"/>
      <circle cx="0" cy="-9" r="2.8"/>
      <circle cx="5" cy="-7" r="2.8"/>
    </g>
    <g transform="translate(505, 1139) rotate(-4) scale(0.35)">
      <ellipse cx="0" cy="0" rx="5" ry="6.5"/>
      <circle cx="-5" cy="-7" r="2.8"/>
      <circle cx="0" cy="-9" r="2.8"/>
      <circle cx="5" cy="-7" r="2.8"/>
    </g>
    <g transform="translate(535, 1134) rotate(3) scale(0.3)">
      <ellipse cx="0" cy="0" rx="5" ry="6.5"/>
      <circle cx="-5" cy="-7" r="2.8"/>
      <circle cx="0" cy="-9" r="2.8"/>
      <circle cx="5" cy="-7" r="2.8"/>
    </g>
    <g transform="translate(560, 1138) rotate(-2) scale(0.25)">
      <ellipse cx="0" cy="0" rx="5" ry="6.5"/>
      <circle cx="-5" cy="-7" r="2.8"/>
      <circle cx="0" cy="-9" r="2.8"/>
      <circle cx="5" cy="-7" r="2.8"/>
    </g>
  </g>

  <text x="450" y="1175" text-anchor="middle" font-family="Georgia, serif" font-size="11" fill="#2a2520" font-style="italic">
    *wags tail and walks away*
  </text>

  <!-- Bottom warm line -->
  <line x1="0" y1="1199" x2="900" y2="1199" stroke="url(#fline)" stroke-width="0.5">
    <animate attributeName="opacity" values="0.5;1;0.5" dur="4s" repeatCount="indefinite"/>
  </line>
</svg>
